<svg width="52" height="63" viewBox="0 0 52 63" fill="none" xmlns="http://www.w3.org/2000/svg">
<rect x="5" y="5" width="47" height="58" rx="3" fill="#E4F0FD"/>
<rect x="1" y="1" width="45" height="56" rx="2" stroke="#131313" stroke-width="2"/>
<path fill-rule="evenodd" clip-rule="evenodd" d="M16.5047 25H25.0121C25.0492 25 25.0863 25.0006 25.1231 25.0017H29.2586C28.2489 23.7792 26.7215 23 25.0121 23H16.5047C13.4646 23 11 25.4646 11 28.5047C11 31.5449 13.4646 34.0095 16.5047 34.0095H25.0121C27.8836 34.0095 30.2416 31.8108 30.4944 29.0052H28.4814C28.2385 30.7037 26.7778 32.0095 25.0121 32.0095H16.5047C14.5691 32.0095 13 30.4404 13 28.5047C13 26.5691 14.5691 25 16.5047 25Z" fill="black"/>
<path fill-rule="evenodd" clip-rule="evenodd" d="M31.4953 35.012H22.9879C22.9521 35.012 22.9164 35.0114 22.8808 35.0104H18.7415C19.7512 36.2328 21.2786 37.012 22.9879 37.012H31.4953C34.5354 37.012 37 34.5474 37 31.5072C37 28.467 34.5354 26.0025 31.4953 26.0025H22.9879C20.1164 26.0025 17.7584 28.2012 17.5056 31.0069H19.5186C19.7614 29.3083 21.2222 28.0025 22.9879 28.0025H31.4953C33.4309 28.0025 35 29.5716 35 31.5072C35 33.4428 33.4309 35.012 31.4953 35.012Z" fill="black"/>
</svg>
