<svg width="55" height="76" viewBox="0 0 55 76" fill="none" xmlns="http://www.w3.org/2000/svg">
<rect x="5" y="18" width="47" height="58" rx="3" fill="#E4F0FD"/>
<path fill-rule="evenodd" clip-rule="evenodd" d="M36.9474 13H3C1.34315 13 0 14.3431 0 16V68C0 69.6569 1.34315 71 3 71H44C45.6569 71 47 69.6569 47 68V16C47 15.1005 46.6041 14.2935 45.9772 13.7437L45 15L44.7742 15.367C44.9153 15.5394 45 15.7598 45 16V68C45 68.5523 44.5523 69 44 69H3C2.44772 69 2 68.5523 2 68V16C2 15.4477 2.44772 15 3 15H35.8947L36.9474 13Z" fill="#131313"/>
<path d="M33.6039 37.2268C36.1213 34.0019 39.2747 29.2466 42.4282 23.7845C48.5773 13.1341 52.399 3.82843 50.9641 3C49.5292 2.17157 43.3811 10.1341 37.2321 20.7845C34.0786 26.2466 31.537 31.3552 30.0029 35.1478L33.6039 37.2268Z" fill="#E4F0FD"/>
<path d="M29.1068 48.858C27.9627 50.8396 20.4641 55.8275 20.4641 55.8275C20.4641 55.8275 21.0345 46.8396 22.1786 44.858C22.8519 43.6917 23.9876 42.9655 25.1981 42.7907C25.131 42.1762 25.2518 41.535 25.585 40.958C26.011 40.22 26.7018 39.7301 27.4672 39.5398L31.0682 41.6188C31.2861 42.3768 31.2072 43.22 30.7811 43.958C30.448 44.535 29.9531 44.9602 29.3873 45.2094C29.8412 46.345 29.7801 47.6917 29.1068 48.858Z" fill="#E4F0FD"/>
<path d="M17.4641 55.8275L16.4661 55.7642L16.3383 57.7774L18.0179 56.6602L17.4641 55.8275ZM17.4641 55.8275C18.0179 56.6602 18.018 56.6601 18.0181 56.66L18.0185 56.6598L18.0197 56.659L18.0241 56.6561L18.041 56.6448L18.1055 56.6016C18.1618 56.5638 18.2441 56.5085 18.349 56.4376C18.5587 56.2957 18.8589 56.0911 19.2225 55.8397C19.9491 55.3371 20.9315 54.6451 21.9517 53.8894C22.9695 53.1354 24.0365 52.3093 24.9274 51.5397C25.78 50.8032 26.5909 50.0195 26.9728 49.358C27.6439 48.1956 27.8241 46.8812 27.5683 45.6717C27.9948 45.3543 28.365 44.9466 28.6471 44.458C29.2142 43.4758 29.3192 42.3511 29.0292 41.3425L28.9177 40.9546L28.5682 40.7528L24.9672 38.6738L24.6176 38.472L24.2259 38.5693C23.2075 38.8225 22.286 39.4758 21.7189 40.458C21.4368 40.9466 21.2689 41.4711 21.2073 41.9991C20.0319 42.3823 18.9837 43.1956 18.3125 44.358C17.9307 45.0195 17.6574 46.1136 17.4458 47.2202C17.2248 48.3766 17.0429 49.7136 16.8988 50.9721C16.7544 52.2335 16.6463 53.4303 16.5744 54.3108C16.5384 54.7514 16.5114 55.1137 16.4934 55.3662C16.4844 55.4925 16.4776 55.5914 16.473 55.6591L16.4679 55.7366L16.4666 55.7568L16.4662 55.7621L16.4661 55.7636L16.4661 55.764C16.4661 55.7641 16.4661 55.7642 17.4641 55.8275ZM30.1039 38.0929L30.857 38.5277L31.3922 37.8422C33.9465 34.5699 37.1255 29.773 40.2943 24.2845C43.3839 18.9331 45.8988 13.903 47.4652 10.0889C48.2456 8.18871 48.8064 6.55245 49.0774 5.31294C49.2113 4.70037 49.2885 4.12389 49.2598 3.63549C49.2346 3.20578 49.105 2.50401 48.4641 2.13397C47.8232 1.76394 47.1507 2.00264 46.7659 2.19565C46.3286 2.41502 45.868 2.7701 45.4044 3.19237C44.4665 4.04681 43.3298 5.35061 42.0744 6.97653C39.5545 10.2401 36.4557 14.9331 33.3661 20.2845C30.1973 25.773 27.6325 30.9245 26.0759 34.7728L25.7497 35.579L26.5029 36.0138L30.1039 38.0929Z" stroke="#131313" stroke-width="2"/>
</svg>
