<svg width="74" height="55" viewBox="0 0 74 55" fill="none" xmlns="http://www.w3.org/2000/svg">
<path d="M14.1564 37.6028C14.6752 36.6171 15.6974 36 16.8112 36H62.1888C63.3026 36 64.3248 36.6171 64.8436 37.6028L71.6857 50.6028C72.7371 52.6005 71.2884 55 69.0309 55H9.96909C7.71156 55 6.2629 52.6005 7.31434 50.6028L14.1564 37.6028Z" fill="#E4F0FD"/>
<path d="M9.76017 35.6028C10.2789 34.6171 11.3011 34 12.4149 34H56.5851C57.6989 34 58.7211 34.6171 59.2398 35.6028L65.0293 46.6028C66.0807 48.6005 64.6321 51 62.3745 51H6.62545C4.36792 51 2.91926 48.6005 3.9707 46.6028L9.76017 35.6028Z" stroke="#131313" stroke-width="2"/>
<path d="M55 17.7222C55 24.3617 50.8443 30.6916 46.5101 35.4593C44.3616 37.8226 42.21 39.7576 40.5947 41.102C39.7877 41.7736 39.1165 42.2962 38.649 42.6496C38.5968 42.6891 38.5471 42.7265 38.5 42.7617C38.4529 42.7265 38.4032 42.6891 38.351 42.6496C37.8835 42.2962 37.2123 41.7736 36.4053 41.102C34.79 39.7576 32.6384 37.8226 30.4899 35.4593C26.1557 30.6916 22 24.3617 22 17.7222C22 8.47486 29.3992 1 38.5 1C47.6008 1 55 8.47486 55 17.7222Z" fill="white" stroke="#131313" stroke-width="2"/>
<path d="M51 18.7222C51 30.0314 39.9945 40.1536 35.6935 43.6776C34.6967 44.4943 33.3033 44.4943 32.3065 43.6776C28.0055 40.1536 17 30.0314 17 18.7222C17 8.93451 24.6112 1 34 1C43.3888 1 51 8.93451 51 18.7222Z" fill="#E4F0FD"/>
<path d="M48 17.7222C48 24.3617 43.8443 30.6916 39.5101 35.4593C37.3616 37.8226 35.21 39.7576 33.5947 41.102C32.7877 41.7736 32.1165 42.2962 31.649 42.6496C31.5968 42.6891 31.5471 42.7265 31.5 42.7617C31.4529 42.7265 31.4032 42.6891 31.351 42.6496C30.8835 42.2962 30.2123 41.7736 29.4053 41.102C27.79 39.7576 25.6384 37.8226 23.4899 35.4593C19.1557 30.6916 15 24.3617 15 17.7222C15 8.47486 22.3992 1 31.5 1C40.6008 1 48 8.47486 48 17.7222Z" stroke="#131313" stroke-width="2"/>
<circle cx="31.5" cy="16.5" r="7.5" stroke="#131313" stroke-width="2"/>
</svg>
