<svg width="58" height="56" viewBox="0 0 58 56" fill="none" xmlns="http://www.w3.org/2000/svg">
<path d="M9 5C6.79083 5 5 6.79083 5 9V40C5 42.2091 6.79083 44 9 44H12.0001L12 56L18.9282 44H54C56.2092 44 58 42.2091 58 40V9C58 6.79083 56.2092 5 54 5H9Z" fill="#E4F0FD"/>
<path d="M8.00012 39L8.00013 38H7.00012H4C2.34313 38 1 36.6568 1 35V4C1 2.34312 2.34312 1 4 1H49C50.6569 1 52 2.34312 52 4V35C52 36.6568 50.6569 38 49 38H13.9282H13.3509L13.0622 38.5L8.00004 47.2679L8.00012 39Z" stroke="#131313" stroke-width="2"/>
<circle cx="16.5" cy="19.5" r="2.5" fill="#131313"/>
<circle cx="26.5" cy="19.5" r="2.5" fill="#131313"/>
<circle cx="36.5" cy="19.5" r="2.5" fill="#131313"/>
</svg>
