<svg width="65" height="45" viewBox="0 0 65 45" fill="none" xmlns="http://www.w3.org/2000/svg">
<path d="M8 5C6.34315 5 5 6.34315 5 8V42C5 43.6569 6.34315 45 8 45H49C50.6569 45 52 43.6569 52 42V37.8095L60.7102 41.9572C62.701 42.9052 65 41.4537 65 39.2487V10.7513C65 8.54634 62.701 7.09476 60.7102 8.04276L52 12.1905V8C52 6.34315 50.6569 5 49 5H8Z" fill="#E4F0FD"/>
<path d="M47.5766 29.9925L46 28.8797V30.8095V37C46 38.1046 45.1046 39 44 39H3C1.89543 39 1 38.1046 1 37V3C1 1.89543 1.89543 1 3 1H44C45.1046 1 46 1.89543 46 3V9.19048V11.1203L47.5766 10.0075L56.2103 3.91376C57.5208 3.34781 59 4.30719 59 5.75134V34.2487C59 35.6928 57.5208 36.6522 56.2103 36.0862L47.5766 29.9925Z" stroke="#131313" stroke-width="2"/>
<circle cx="24" cy="20" r="12" stroke="#131313" stroke-width="2"/>
<path d="M28.0563 20L21 24.2338L21 15.7662L28.0563 20Z" stroke="#131313" stroke-width="2"/>
</svg>
